<svg width="24" height="22" viewBox="0 0 24 22" fill="none" xmlns="http://www.w3.org/2000/svg">
<path d="M2.66806 0C1.53368 0 0.594238 0.901863 0.594238 1.99087V19.9087C0.594238 20.9977 1.53368 21.8995 2.66806 21.8995H21.3324C22.4668 21.8995 23.4063 20.9977 23.4063 19.9087V1.99087C23.4063 0.901863 22.4668 0 21.3324 0H2.66806ZM2.66806 1.99087H21.3324V19.9087H15.953V13.1895H18.6427L19.0315 10.2032H15.954V8.27404C15.954 7.40404 16.1759 6.81275 17.4762 6.81275H19.1611V4.10616C18.8739 4.07132 17.8775 4.01259 16.7317 4.01259C14.3416 4.01259 12.7136 5.39326 12.7136 7.96347V10.2032H9.99175V13.1895H12.7126V19.9087H2.66806V1.99087Z" fill="#2F2F2F"/>
</svg>
