<svg width="23" height="22" viewBox="0 0 23 22" fill="none" xmlns="http://www.w3.org/2000/svg">
<path d="M11.4029 5.33148C8.16436 5.33148 5.55067 7.84067 5.55067 10.9498C5.55067 14.0589 8.16436 16.5681 11.4029 16.5681C14.6415 16.5681 17.2552 14.0589 17.2552 10.9498C17.2552 7.84067 14.6415 5.33148 11.4029 5.33148ZM11.4029 14.6012C9.30857 14.6012 7.59939 12.9604 7.59939 10.9498C7.59939 8.93913 9.30857 7.29829 11.4029 7.29829C13.4973 7.29829 15.2065 8.93913 15.2065 10.9498C15.2065 12.9604 13.4973 14.6012 11.4029 14.6012ZM17.4949 3.792C16.7388 3.792 16.1281 4.37821 16.1281 5.10412C16.1281 5.83003 16.7388 6.41624 17.4949 6.41624C18.2511 6.41624 18.8617 5.83277 18.8617 5.10412C18.8619 4.93175 18.8267 4.76103 18.7581 4.60174C18.6895 4.44244 18.5888 4.29771 18.4619 4.17583C18.3349 4.05394 18.1841 3.9573 18.0182 3.89144C17.8523 3.82557 17.6745 3.79178 17.4949 3.792ZM22.8107 10.9498C22.8107 9.43768 22.825 7.93929 22.7366 6.42994C22.6481 4.67679 22.2315 3.12087 20.8961 1.83888C19.5579 0.554152 17.94 0.156954 16.1139 0.0720364C14.5388 -0.0128817 12.978 0.000814787 11.4058 0.000814787C9.83073 0.000814787 8.26994 -0.0128817 6.69773 0.0720364C4.87156 0.156954 3.25085 0.556891 1.91547 1.83888C0.577231 3.12361 0.163491 4.67679 0.0750365 6.42994C-0.0134182 7.94203 0.00084872 9.44042 0.00084872 10.9498C0.00084872 12.4591 -0.0134182 13.9603 0.0750365 15.4696C0.163491 17.2227 0.580084 18.7787 1.91547 20.0607C3.2537 21.3454 4.87156 21.7426 6.69773 21.8275C8.27279 21.9124 9.83359 21.8987 11.4058 21.8987C12.9809 21.8987 14.5417 21.9124 16.1139 21.8275C17.94 21.7426 19.5608 21.3426 20.8961 20.0607C22.2344 18.7759 22.6481 17.2227 22.7366 15.4696C22.8279 13.9603 22.8107 12.4619 22.8107 10.9498ZM20.2998 17.409C20.0915 17.9076 19.8404 18.2801 19.4381 18.6636C19.0357 19.0499 18.6505 19.2909 18.1312 19.4909C16.6303 20.0634 13.0665 19.9347 11.4029 19.9347C9.73943 19.9347 6.1727 20.0634 4.67183 19.4936C4.15251 19.2937 3.76445 19.0526 3.36498 18.6664C2.96265 18.2801 2.71156 17.9103 2.50326 17.4118C1.90976 15.9682 2.04387 12.5468 2.04387 10.9498C2.04387 9.35276 1.90976 5.92865 2.50326 4.48778C2.71156 3.98923 2.96265 3.61668 3.36498 3.23318C3.76731 2.84968 4.15251 2.60588 4.67183 2.40591C6.1727 1.83614 9.73943 1.96489 11.4029 1.96489C13.0665 1.96489 16.6332 1.83614 18.1341 2.40591C18.6534 2.60588 19.0414 2.84694 19.4409 3.23318C19.8432 3.61942 20.0943 3.98923 20.3026 4.48778C20.8961 5.92865 20.762 9.35276 20.762 10.9498C20.762 12.5468 20.8961 15.9682 20.2998 17.409Z" fill="#2F2F2F"/>
</svg>
