<svg width="1920" height="804" viewBox="0 0 1920 804" fill="none" xmlns="http://www.w3.org/2000/svg">
<mask id="path-1-inside-1" fill="white">
<path fill-rule="evenodd" clip-rule="evenodd" d="M432.062 0.708763C413.764 4.0958 401.855 22.7466 406.901 40.1151C412.267 58.5852 429.478 68.3976 447.375 63.1913C457.172 60.3412 465.975 51.7164 468.799 42.2008C471.265 33.8931 471.287 30.5136 468.93 22.6076C466.443 14.2657 460.781 7.72665 452.772 3.94546C444.978 0.265329 439.275 -0.626594 432.062 0.708763ZM535.585 0.660756C511.314 5.37304 501.398 36.3654 518.5 54.0687C521.074 56.7331 525.182 59.9471 527.627 61.2117C549.278 72.4037 575.95 54.6132 573.998 30.2824C573.263 21.127 569.784 13.7869 563.607 8.35833C555.778 1.48067 545.667 -1.29617 535.585 0.660756ZM639.958 0.511681C618.916 4.76284 607.436 28.1095 617.082 47.0319C622.913 58.469 637.446 66.1198 650.045 64.3852C658.93 63.1623 668.73 56.8468 673.336 49.3741C678.143 41.5768 679.317 28.8435 676.024 20.2174C670.962 6.9497 653.989 -2.32327 639.958 0.511681ZM479.625 83.9077C471.295 86.7717 462.011 96.0409 459.683 103.818C454.778 120.199 462.812 137.709 478.27 144.327C483.985 146.774 496.566 146.754 502.441 144.288C514.152 139.375 522.523 126.868 522.523 114.286C522.523 100.466 512.781 87.3023 499.67 83.4049C491.23 80.8971 488.16 80.9742 479.625 83.9077ZM586.303 82.6203C568.105 87.0534 557.626 106.124 563.186 124.691C565.328 131.847 574.365 141.409 581.604 144.179C588.747 146.915 599.698 146.974 605.964 144.312C612.263 141.635 619.41 135.048 622.645 128.935C626.496 121.653 626.505 106.936 622.661 99.6717C615.677 86.4736 600.227 79.2283 586.303 82.6203ZM-14 367.587V588.041H47.2297H108.459V510.977V433.913H179.157H249.856V380.852V327.792H179.157H108.459V291.786V255.781H187.364H266.268V201.457V147.133H126.134H-14V367.587ZM354.645 288.944C354.649 407.422 354.955 432.632 356.5 442.162C368.717 517.54 422.345 570.261 501.778 584.98C518.786 588.132 555.082 588.784 573.156 586.262C616.931 580.154 652.677 563.464 680.281 536.244C693.064 523.639 701.682 511.876 709.901 495.817C718.725 478.577 723.912 463.128 727.054 444.732C729.495 430.451 729.593 424.358 729.593 288.503V147.133L719.809 147.136L710.025 147.137L680.732 185.352C664.62 206.369 637.502 241.758 620.469 263.993L589.501 304.42L589.481 371.061C589.468 407.713 589.289 437.703 589.079 437.703C588.87 437.703 567.992 428.357 542.684 416.932L496.668 396.163L496.336 351.847L496.004 307.531L445.832 241.544C418.238 205.252 390.834 169.163 384.935 161.348L374.209 147.138L364.425 147.136L354.64 147.133L354.645 288.944ZM793.979 367.573V588.041H852.677H911.376L911.698 468.563L912.02 349.083L933.482 378.463C945.286 394.623 963.749 419.891 974.512 434.616C985.274 449.341 1014.82 489.86 1040.16 524.661L1086.24 587.935L1136.42 587.988L1186.61 588.041V367.587V147.133H1127.91H1069.21L1068.89 262.531L1068.57 377.93L1041.78 341.174C1027.05 320.959 1005.02 290.776 992.831 274.099C980.642 257.423 962.174 232.125 951.789 217.881C941.405 203.636 925.649 182.033 916.778 169.873L900.65 147.765L847.314 147.435L793.979 147.105V367.573ZM1273.72 367.587V588.041H1332.41H1391.11L1391.44 468.616L1391.76 349.189L1415.06 381.129C1427.88 398.694 1458.51 440.64 1483.12 474.34C1507.73 508.04 1536.44 547.389 1546.92 561.784L1565.98 587.955L1616.16 587.998L1666.34 588.041V367.587V147.133H1607.65H1548.95L1548.62 262.593L1548.3 378.054L1519.14 338.078C1456.8 252.624 1389.25 160.093 1384.58 153.766L1379.68 147.133H1326.7H1273.72V367.587ZM1753.45 367.587V588.041H1896.74H2040.03V535.612V483.183H1956.69H1873.35L1873.68 450.02L1874.02 416.858L1946.3 416.532L2018.57 416.206V366.955V317.705L1946.3 317.379L1874.02 317.053L1873.68 284.522L1873.35 251.991H1954.16H2034.98V199.562V147.133H1894.22H1753.45V367.587ZM2110.73 367.587V588.041H2250.87H2391V532.454V476.867H2312.1H2233.19V312V147.133H2171.96H2110.73V367.587ZM625.955 199.288C610.269 214.03 582.831 239.736 564.983 256.413L532.531 286.733L548.673 287.588C557.552 288.058 564.878 288.342 564.954 288.22C565.181 287.852 642.388 188.844 649.113 180.296C652.53 175.954 655.134 172.419 654.901 172.442C654.667 172.464 641.642 184.546 625.955 199.288ZM553.812 450.873C577.398 457.156 592.911 481.231 588.17 504.194C584.985 519.622 575.325 532.274 561.932 538.556C555.642 541.507 553.161 541.929 542.117 541.929C530.825 541.929 528.727 541.552 522.247 538.369C513.014 533.832 504.759 525.571 500.226 516.332C495.652 507.012 494.651 491.9 497.917 481.508C502.171 467.971 514.166 456.077 527.978 451.697C537.347 448.725 544.853 448.487 553.812 450.873ZM539.803 470.129C539.339 470.591 538.939 471.871 538.911 472.972C538.885 474.072 537.052 476.112 534.836 477.506C527.064 482.399 526.928 491.806 534.575 495.455C538.606 497.379 538.961 498.001 538.961 503.144C538.961 508.7 538.939 508.727 536.046 506.829C533.399 505.095 532.845 505.134 530.049 507.253C526.997 509.564 526.992 509.606 529.492 511.488C530.881 512.535 533.58 514.053 535.489 514.863C537.89 515.882 538.961 517.263 538.961 519.341C538.961 521.839 539.601 522.347 542.748 522.347C545.918 522.347 546.535 521.847 546.535 519.273C546.535 517.398 547.442 515.913 548.861 515.462C552.72 514.236 556.789 508.977 556.9 505.072C557.044 499.976 554.82 496.342 550.339 494.358C547.057 492.903 546.535 492.005 546.535 487.793C546.535 483.874 546.927 483.063 548.52 483.675C550.64 484.488 555.373 482.51 555.373 480.811C555.373 480.25 553.384 478.72 550.954 477.41C547.899 475.764 546.535 474.143 546.535 472.158C546.535 469.991 545.812 469.286 543.59 469.286C541.969 469.286 540.265 469.665 539.803 470.129ZM538.961 485.71C538.961 487.794 538.393 489.5 537.698 489.5C536.294 489.5 535.956 484.085 537.278 482.763C538.703 481.335 538.961 481.785 538.961 485.71ZM550.323 504.028C550.323 504.9 549.471 506.321 548.429 507.187C546.803 508.537 546.535 508.09 546.535 504.028C546.535 499.967 546.803 499.52 548.429 500.87C549.471 501.735 550.323 503.157 550.323 504.028ZM1.83008 674.264C1.55359 675.134 -0.472664 688.066 -2.67314 703.005C-4.87489 717.945 -8.3088 740.969 -10.306 754.171C-12.3032 767.373 -13.9508 778.886 -13.9684 779.754C-13.9924 780.93 -10.1949 781.333 0.898375 781.333H15.798L19.4162 753.918C21.4059 738.839 23.3779 724.818 23.7983 722.76C24.4649 719.499 26.4065 723.017 38.9289 750.176L53.2945 781.333H57.8407H62.3881L76.1212 751.328C83.6758 734.827 90.2596 720.873 90.7532 720.323C91.4892 719.5 94.3664 738.3 99.266 775.964L99.9654 781.333H114.943C123.181 781.333 129.921 780.953 129.921 780.489C129.921 780.024 129.352 776.187 128.658 771.961C127.962 767.736 124.546 744.949 121.065 721.324C117.584 697.699 114.45 677.09 114.099 675.528C113.481 672.776 112.988 672.686 98.6512 672.709L83.8412 672.733L79.8632 681.868C77.6753 686.893 72.0056 699.957 67.2625 710.901C62.5207 721.846 58.2775 730.799 57.8331 730.799C57.3887 730.799 51.4122 717.737 44.5532 701.772L32.0801 672.745L17.2069 672.716C6.39516 672.693 2.19619 673.116 1.83008 674.264ZM1297.16 704.585C1279.87 748.653 1267.42 780.641 1267.41 781.017C1267.41 781.191 1274.44 781.333 1283.04 781.333H1298.67L1301.66 772.805L1304.65 764.278H1324.22H1343.78L1346.77 772.805L1349.76 781.333H1366.16C1378.77 781.333 1382.42 780.968 1381.94 779.754C1381.6 778.886 1371.8 754.439 1360.16 725.43L1339 672.685H1324.33H1309.67L1297.16 704.585ZM166.058 697.95C154.334 702.532 148.679 707.675 142.397 719.468C139.729 724.475 139.39 726.758 139.391 739.643C139.394 752.526 139.746 754.886 142.502 760.488C149.904 775.529 164.153 784.105 181.838 784.162C191.366 784.192 192.527 783.843 207.331 776.523C207.898 776.243 208.674 777.211 209.056 778.674C209.697 781.126 210.626 781.333 220.967 781.333H232.181V739.643V697.952H221.653C211.579 697.952 211.061 698.092 209.65 701.19L208.177 704.428L204.481 701.795C195.107 695.116 177.752 693.379 166.058 697.95ZM282.268 699.687L274.098 703.948L272.494 700.95C271.016 698.186 270.118 697.952 260.992 697.952H251.093L251.421 755.119L251.749 812.285H265.636H279.524L279.878 796.057C280.2 781.304 280.43 779.905 282.403 780.676C301.325 788.058 320.02 784.498 332.511 771.134C341.43 761.593 343.724 755.335 343.825 740.274C343.901 728.893 343.546 726.852 340.237 719.682C332.988 703.972 318.952 695.425 300.398 695.425C291.542 695.425 289.532 695.898 282.268 699.687ZM472.681 697.123C464.016 699.985 460.007 702.645 453.305 709.984C433.579 731.582 440.45 767.619 466.595 779.683C484.682 788.027 505.547 785.126 519.411 772.337C524.224 767.897 531.386 757.058 531.386 754.213C531.386 753.843 524.853 753.539 516.867 753.539C507.89 753.539 502.349 754.028 502.349 754.822C502.349 757.489 494.139 761.111 488.083 761.114C480.638 761.121 475.23 758.471 472.703 753.581C468.639 745.717 467.715 745.959 501.694 745.959H532.6L533.391 742.806C534.562 738.138 531.997 725.604 528.428 718.557C524.586 710.97 515.628 702.509 507.677 698.959C500.208 695.624 480.37 694.583 472.681 697.123ZM1053.71 698.426C1041.05 703.733 1034.06 710.483 1028.6 722.657C1024.28 732.295 1024.6 747.77 1029.35 758.257C1037.82 776.976 1058.47 787.267 1080.58 783.791C1102.53 780.341 1117.53 764.841 1119.29 743.772C1120.9 724.558 1111.22 707.584 1094.18 699.742C1087.39 696.615 1084.41 696.036 1073.62 695.73C1062.62 695.418 1060.05 695.765 1053.71 698.426ZM1544.52 697.123C1530.07 701.894 1520.41 711.616 1515.99 725.819C1512.96 735.552 1512.94 743.665 1515.92 753.236C1522.07 773.02 1537.9 784.197 1559.67 784.129C1572.6 784.088 1581.9 780.708 1590.6 772.874C1595.84 768.164 1603.22 757.246 1603.22 754.213C1603.22 753.843 1596.69 753.539 1588.7 753.539C1580.72 753.539 1574.18 754.061 1574.18 754.699C1574.18 757.281 1565.57 761.119 1559.77 761.119C1552.46 761.119 1547.05 758.44 1544.54 753.581C1540.47 745.717 1539.56 745.959 1573.47 745.959C1608.73 745.959 1606.73 746.702 1605.11 734.2C1603.21 719.587 1593.45 705.78 1580.68 699.635C1574.76 696.789 1571.52 696.146 1561.56 695.832C1554.02 695.595 1547.69 696.075 1544.52 697.123ZM1653.26 697.881C1649.89 699.234 1646.1 701.272 1644.84 702.412C1642.7 704.348 1642.42 704.27 1640.42 701.217C1638.42 698.162 1637.64 697.952 1628.31 697.952H1618.34L1618.67 755.119L1619 812.285L1633.2 812.643L1647.41 813V796.535C1647.41 787.479 1647.91 780.07 1648.52 780.07C1649.12 780.07 1651.82 781.004 1654.51 782.147C1660.94 784.877 1675.25 784.888 1683.39 782.168C1693.69 778.727 1701.68 771.772 1706.74 761.824C1710.97 753.527 1711.16 752.567 1711.16 739.764C1711.16 727.989 1710.77 725.541 1707.89 719.429C1703.77 710.677 1696.73 703.656 1687.81 699.405C1678.43 694.938 1662.38 694.23 1653.26 697.881ZM1935.51 697.758C1927.71 700.523 1921.11 705.518 1915.38 712.999C1903.04 729.076 1905.29 757.422 1920.05 772.087C1932.93 784.88 1954.49 788.04 1970.87 779.534C1976.76 776.48 1976.92 776.465 1978.21 778.872C1979.36 781.03 1980.92 781.333 1990.84 781.333H2002.16V739.643V697.952H1990.8C1984.55 697.952 1979.43 698.378 1979.42 698.9C1979.41 699.421 1978.9 700.63 1978.29 701.588C1977.4 703.007 1975.82 702.657 1969.79 699.693C1960.16 694.959 1945.69 694.143 1935.51 697.758ZM2145.92 697.344C2127.28 703.271 2115.53 719.631 2115.53 739.643C2115.53 766.096 2134.41 784.226 2161.86 784.131C2174.63 784.088 2184.11 780.695 2192.47 773.173C2198.79 767.487 2204.84 756.988 2205.61 750.381L2206.05 746.591L2192.53 746.233L2179.01 745.875L2177 749.763C2174.17 755.251 2168.11 758.583 2160.96 758.588C2142.68 758.603 2137.3 731.052 2153.91 722.458C2161.17 718.701 2172.33 721.598 2176.09 728.212L2178.27 732.046L2191.85 732.055C2205.24 732.062 2205.42 732.023 2205.42 729.106C2205.42 724.37 2198.13 711.101 2193.11 706.687C2184.73 699.33 2175.91 696.123 2163.12 695.785C2155.83 695.593 2149.67 696.151 2145.92 697.344ZM358.428 739.643V781.333H372.911H387.394L387.745 764.023L388.096 746.712L398.196 764L408.295 781.289L425.097 781.311C438.217 781.328 441.688 780.987 440.934 779.754C440.401 778.886 434.119 769.216 426.972 758.267C419.824 747.317 413.976 738.116 413.976 737.82C413.976 737.523 419.673 728.573 426.634 717.932L439.291 698.584L424.498 698.226C416.361 698.029 409.083 698.106 408.323 698.398C407.564 698.69 402.703 705.955 397.519 714.542L388.096 730.157L387.742 714.055L387.389 697.952H372.908H358.428V739.643ZM538.961 709.91V721.867L551.901 722.227L564.841 722.587L565.18 751.96L565.519 781.333H579.36H593.2L593.54 751.96L593.878 722.587L606.818 722.227L619.758 721.867V709.91V697.952H579.36H538.961V709.91ZM632.383 739.643V781.333H640.997H649.611L665.931 762.931L682.251 744.53L682.6 762.931L682.949 781.333H696.803H710.656V739.643V697.952H702.485H694.315L677.552 716.297L660.789 734.642L660.439 716.297L660.091 697.952H646.236H632.383V739.643ZM729.593 739.643V781.333H744.112H758.63V766.805V752.276H770.623H782.617V766.805V781.333H796.504H810.391V739.643V697.952H796.546H782.7L782.343 712.165L781.986 726.377L770.308 726.741L758.63 727.104V712.529V697.952H744.112H729.593V739.643ZM829.328 739.643V781.333H843.192H857.056L857.395 751.96L857.734 722.587L873.199 722.232L888.664 721.877V709.915V697.952H858.996H829.328V739.643ZM930.325 739.643V781.333H944.844H959.362V751.596V721.861L971.04 722.224L982.718 722.587L983.056 751.96L983.396 781.333H997.259H1011.12V739.643V697.952H970.724H930.325V739.643ZM1399.96 698.716C1399.96 699.923 1388.61 773.985 1387.82 777.903L1387.12 781.42L1400.8 781.061L1414.48 780.701L1417.19 760.724C1418.68 749.735 1420.19 740.462 1420.53 740.115C1420.88 739.769 1426.16 749.186 1432.26 761.041C1447.16 789.967 1446.19 789.973 1461.18 760.855C1467.34 748.898 1472.63 739.857 1472.93 740.766C1473.23 741.674 1474.71 751.032 1476.2 761.559L1478.93 780.701L1492.53 781.06L1506.14 781.42L1505.42 777.27C1504.47 771.767 1496.46 721.587 1494.43 708.375L1492.83 697.952H1480.48H1468.13L1457.73 718.797C1452.02 730.262 1447.04 739.643 1446.67 739.643C1446.31 739.643 1441.33 730.262 1435.62 718.797L1425.22 697.952H1412.59C1405.65 697.952 1399.96 698.296 1399.96 698.716ZM1725.68 739.643V781.333H1734.44H1743.19L1760 762.752L1776.81 744.169L1777.16 762.752L1777.51 781.333H1791.36H1805.22V739.643V697.952H1796.66H1788.11L1771.1 716.542L1754.09 735.132L1753.74 716.542L1753.39 697.952H1739.53H1725.68V739.643ZM1824.15 739.643V781.333H1838.04H1851.93V764.278C1851.93 754.897 1852.35 747.247 1852.87 747.277C1853.39 747.307 1858.28 754.982 1863.73 764.332L1873.63 781.333H1890.52H1907.4L1893.55 760.315C1885.93 748.755 1879.7 738.713 1879.7 737.999C1879.7 737.286 1885.37 727.983 1892.3 717.327L1904.9 697.952L1888.83 697.984L1872.76 698.015L1863.29 713.744C1858.08 722.394 1853.39 729.486 1852.87 729.504C1852.35 729.522 1851.93 722.429 1851.93 713.744V697.952H1838.04H1824.15V739.643ZM2021.1 739.643V781.333H2034.98H2048.87V766.805V752.276H2060.86H2072.86V766.805V781.333H2086.75H2100.63V739.643V697.952H2086.75H2072.86V712.481V727.009H2060.86H2048.87V712.481V697.952H2034.98H2021.1V739.643ZM2219.3 739.643V781.333H2233.79H2248.27L2248.62 763.962L2248.97 746.591L2259.16 763.646L2269.36 780.701L2285.99 781.054C2295.14 781.247 2302.63 781.093 2302.63 780.71C2302.63 780.327 2296.36 770.627 2288.69 759.154C2280.35 746.665 2275.13 737.676 2275.68 736.756C2276.18 735.912 2281.88 727.103 2288.35 717.179C2294.81 707.257 2300.1 698.871 2300.1 698.545C2300.1 698.219 2293.03 697.952 2284.38 697.952H2268.66L2259.58 713.154C2254.58 721.514 2250.01 728.654 2249.42 729.02C2248.82 729.385 2248.34 722.544 2248.34 713.818V697.952H2233.82H2219.3V739.643ZM2311.46 739.643V781.333H2320.22H2328.98L2345.79 762.752L2362.59 744.169L2362.94 762.752L2363.29 781.333H2377.15H2391V739.643V697.952H2382.45H2373.9L2356.88 716.542L2339.87 735.132L2339.52 716.542L2339.17 697.952H2325.32H2311.46V739.643ZM1330.86 724.167L1336.54 740.274L1325.17 740.639C1318.91 740.84 1313.51 740.718 1313.16 740.366C1312.35 739.557 1323.28 708.059 1324.37 708.059C1324.81 708.059 1327.73 715.307 1330.86 724.167ZM498.084 720.278C500.781 722.045 504.874 727.969 504.874 730.104C504.874 730.487 497.204 730.799 487.831 730.799C478.457 730.799 470.787 730.487 470.787 730.104C470.787 729.723 471.611 727.818 472.617 725.871C474.526 722.177 478.616 718.934 482.834 717.77C486.686 716.706 494.63 718.013 498.084 720.278ZM1569.92 720.278C1572.62 722.045 1576.71 727.969 1576.71 730.104C1576.71 730.487 1569.04 730.799 1559.67 730.799C1550.29 730.799 1542.62 730.315 1542.62 729.723C1542.62 726.807 1548.87 719.888 1552.77 718.497C1557.97 716.636 1565.57 717.425 1569.92 720.278ZM196.59 723.249C201.032 725.961 205.595 734.246 205.642 739.691C205.687 744.877 200.395 753.879 195.724 756.564C190.232 759.72 181.939 759.713 176.523 756.547C164.606 749.583 164.157 730.24 175.748 723.169C181.206 719.836 191.059 719.875 196.59 723.249ZM307.877 724.001C313.107 728.404 315.504 733.341 315.504 739.704C315.504 751.188 307.698 759.079 296.336 759.079C279.014 759.079 271.054 736.811 284.138 724.959C288.045 721.419 289.668 720.911 297.417 720.792C302.708 720.711 304.693 721.32 307.877 724.001ZM1080.31 722.467C1086.82 725.858 1089.78 730.293 1090.38 737.563C1091.5 751.075 1083.75 759.38 1071 758.322C1063.28 757.681 1058.71 754.454 1055.78 747.579C1048.94 731.522 1065.38 714.694 1080.31 722.467ZM1673.86 722.557C1682.39 726.97 1685.7 741.74 1680.19 750.783C1674.46 760.186 1660.32 762.094 1651.8 754.611C1641.94 745.944 1643.21 729.81 1654.3 723.046C1658.98 720.19 1668.81 719.944 1673.86 722.557ZM1965.68 723.56C1977.23 731.282 1977.04 747.674 1965.29 756.448C1961.16 759.539 1951.23 759.793 1945.79 756.947C1933.33 750.429 1933.26 728.895 1945.67 722.771C1951.75 719.77 1960.53 720.118 1965.68 723.56ZM1167.67 739.035V752.324L1195.76 751.984L1223.85 751.644L1224.21 738.695L1224.57 725.746H1196.12H1167.67V739.035Z"/>
</mask>
<path fill-rule="evenodd" clip-rule="evenodd" d="M432.062 0.708763C413.764 4.0958 401.855 22.7466 406.901 40.1151C412.267 58.5852 429.478 68.3976 447.375 63.1913C457.172 60.3412 465.975 51.7164 468.799 42.2008C471.265 33.8931 471.287 30.5136 468.93 22.6076C466.443 14.2657 460.781 7.72665 452.772 3.94546C444.978 0.265329 439.275 -0.626594 432.062 0.708763ZM535.585 0.660756C511.314 5.37304 501.398 36.3654 518.5 54.0687C521.074 56.7331 525.182 59.9471 527.627 61.2117C549.278 72.4037 575.95 54.6132 573.998 30.2824C573.263 21.127 569.784 13.7869 563.607 8.35833C555.778 1.48067 545.667 -1.29617 535.585 0.660756ZM639.958 0.511681C618.916 4.76284 607.436 28.1095 617.082 47.0319C622.913 58.469 637.446 66.1198 650.045 64.3852C658.93 63.1623 668.73 56.8468 673.336 49.3741C678.143 41.5768 679.317 28.8435 676.024 20.2174C670.962 6.9497 653.989 -2.32327 639.958 0.511681ZM479.625 83.9077C471.295 86.7717 462.011 96.0409 459.683 103.818C454.778 120.199 462.812 137.709 478.27 144.327C483.985 146.774 496.566 146.754 502.441 144.288C514.152 139.375 522.523 126.868 522.523 114.286C522.523 100.466 512.781 87.3023 499.67 83.4049C491.23 80.8971 488.16 80.9742 479.625 83.9077ZM586.303 82.6203C568.105 87.0534 557.626 106.124 563.186 124.691C565.328 131.847 574.365 141.409 581.604 144.179C588.747 146.915 599.698 146.974 605.964 144.312C612.263 141.635 619.41 135.048 622.645 128.935C626.496 121.653 626.505 106.936 622.661 99.6717C615.677 86.4736 600.227 79.2283 586.303 82.6203ZM-14 367.587V588.041H47.2297H108.459V510.977V433.913H179.157H249.856V380.852V327.792H179.157H108.459V291.786V255.781H187.364H266.268V201.457V147.133H126.134H-14V367.587ZM354.645 288.944C354.649 407.422 354.955 432.632 356.5 442.162C368.717 517.54 422.345 570.261 501.778 584.98C518.786 588.132 555.082 588.784 573.156 586.262C616.931 580.154 652.677 563.464 680.281 536.244C693.064 523.639 701.682 511.876 709.901 495.817C718.725 478.577 723.912 463.128 727.054 444.732C729.495 430.451 729.593 424.358 729.593 288.503V147.133L719.809 147.136L710.025 147.137L680.732 185.352C664.62 206.369 637.502 241.758 620.469 263.993L589.501 304.42L589.481 371.061C589.468 407.713 589.289 437.703 589.079 437.703C588.87 437.703 567.992 428.357 542.684 416.932L496.668 396.163L496.336 351.847L496.004 307.531L445.832 241.544C418.238 205.252 390.834 169.163 384.935 161.348L374.209 147.138L364.425 147.136L354.64 147.133L354.645 288.944ZM793.979 367.573V588.041H852.677H911.376L911.698 468.563L912.02 349.083L933.482 378.463C945.286 394.623 963.749 419.891 974.512 434.616C985.274 449.341 1014.82 489.86 1040.16 524.661L1086.24 587.935L1136.42 587.988L1186.61 588.041V367.587V147.133H1127.91H1069.21L1068.89 262.531L1068.57 377.93L1041.78 341.174C1027.05 320.959 1005.02 290.776 992.831 274.099C980.642 257.423 962.174 232.125 951.789 217.881C941.405 203.636 925.649 182.033 916.778 169.873L900.65 147.765L847.314 147.435L793.979 147.105V367.573ZM1273.72 367.587V588.041H1332.41H1391.11L1391.44 468.616L1391.76 349.189L1415.06 381.129C1427.88 398.694 1458.51 440.64 1483.12 474.34C1507.73 508.04 1536.44 547.389 1546.92 561.784L1565.98 587.955L1616.16 587.998L1666.34 588.041V367.587V147.133H1607.65H1548.95L1548.62 262.593L1548.3 378.054L1519.14 338.078C1456.8 252.624 1389.25 160.093 1384.58 153.766L1379.68 147.133H1326.7H1273.72V367.587ZM1753.45 367.587V588.041H1896.74H2040.03V535.612V483.183H1956.69H1873.35L1873.68 450.02L1874.02 416.858L1946.3 416.532L2018.57 416.206V366.955V317.705L1946.3 317.379L1874.02 317.053L1873.68 284.522L1873.35 251.991H1954.16H2034.98V199.562V147.133H1894.22H1753.45V367.587ZM2110.73 367.587V588.041H2250.87H2391V532.454V476.867H2312.1H2233.19V312V147.133H2171.96H2110.73V367.587ZM625.955 199.288C610.269 214.03 582.831 239.736 564.983 256.413L532.531 286.733L548.673 287.588C557.552 288.058 564.878 288.342 564.954 288.22C565.181 287.852 642.388 188.844 649.113 180.296C652.53 175.954 655.134 172.419 654.901 172.442C654.667 172.464 641.642 184.546 625.955 199.288ZM553.812 450.873C577.398 457.156 592.911 481.231 588.17 504.194C584.985 519.622 575.325 532.274 561.932 538.556C555.642 541.507 553.161 541.929 542.117 541.929C530.825 541.929 528.727 541.552 522.247 538.369C513.014 533.832 504.759 525.571 500.226 516.332C495.652 507.012 494.651 491.9 497.917 481.508C502.171 467.971 514.166 456.077 527.978 451.697C537.347 448.725 544.853 448.487 553.812 450.873ZM539.803 470.129C539.339 470.591 538.939 471.871 538.911 472.972C538.885 474.072 537.052 476.112 534.836 477.506C527.064 482.399 526.928 491.806 534.575 495.455C538.606 497.379 538.961 498.001 538.961 503.144C538.961 508.7 538.939 508.727 536.046 506.829C533.399 505.095 532.845 505.134 530.049 507.253C526.997 509.564 526.992 509.606 529.492 511.488C530.881 512.535 533.58 514.053 535.489 514.863C537.89 515.882 538.961 517.263 538.961 519.341C538.961 521.839 539.601 522.347 542.748 522.347C545.918 522.347 546.535 521.847 546.535 519.273C546.535 517.398 547.442 515.913 548.861 515.462C552.72 514.236 556.789 508.977 556.9 505.072C557.044 499.976 554.82 496.342 550.339 494.358C547.057 492.903 546.535 492.005 546.535 487.793C546.535 483.874 546.927 483.063 548.52 483.675C550.64 484.488 555.373 482.51 555.373 480.811C555.373 480.25 553.384 478.72 550.954 477.41C547.899 475.764 546.535 474.143 546.535 472.158C546.535 469.991 545.812 469.286 543.59 469.286C541.969 469.286 540.265 469.665 539.803 470.129ZM538.961 485.71C538.961 487.794 538.393 489.5 537.698 489.5C536.294 489.5 535.956 484.085 537.278 482.763C538.703 481.335 538.961 481.785 538.961 485.71ZM550.323 504.028C550.323 504.9 549.471 506.321 548.429 507.187C546.803 508.537 546.535 508.09 546.535 504.028C546.535 499.967 546.803 499.52 548.429 500.87C549.471 501.735 550.323 503.157 550.323 504.028ZM1.83008 674.264C1.55359 675.134 -0.472664 688.066 -2.67314 703.005C-4.87489 717.945 -8.3088 740.969 -10.306 754.171C-12.3032 767.373 -13.9508 778.886 -13.9684 779.754C-13.9924 780.93 -10.1949 781.333 0.898375 781.333H15.798L19.4162 753.918C21.4059 738.839 23.3779 724.818 23.7983 722.76C24.4649 719.499 26.4065 723.017 38.9289 750.176L53.2945 781.333H57.8407H62.3881L76.1212 751.328C83.6758 734.827 90.2596 720.873 90.7532 720.323C91.4892 719.5 94.3664 738.3 99.266 775.964L99.9654 781.333H114.943C123.181 781.333 129.921 780.953 129.921 780.489C129.921 780.024 129.352 776.187 128.658 771.961C127.962 767.736 124.546 744.949 121.065 721.324C117.584 697.699 114.45 677.09 114.099 675.528C113.481 672.776 112.988 672.686 98.6512 672.709L83.8412 672.733L79.8632 681.868C77.6753 686.893 72.0056 699.957 67.2625 710.901C62.5207 721.846 58.2775 730.799 57.8331 730.799C57.3887 730.799 51.4122 717.737 44.5532 701.772L32.0801 672.745L17.2069 672.716C6.39516 672.693 2.19619 673.116 1.83008 674.264ZM1297.16 704.585C1279.87 748.653 1267.42 780.641 1267.41 781.017C1267.41 781.191 1274.44 781.333 1283.04 781.333H1298.67L1301.66 772.805L1304.65 764.278H1324.22H1343.78L1346.77 772.805L1349.76 781.333H1366.16C1378.77 781.333 1382.42 780.968 1381.94 779.754C1381.6 778.886 1371.8 754.439 1360.16 725.43L1339 672.685H1324.33H1309.67L1297.16 704.585ZM166.058 697.95C154.334 702.532 148.679 707.675 142.397 719.468C139.729 724.475 139.39 726.758 139.391 739.643C139.394 752.526 139.746 754.886 142.502 760.488C149.904 775.529 164.153 784.105 181.838 784.162C191.366 784.192 192.527 783.843 207.331 776.523C207.898 776.243 208.674 777.211 209.056 778.674C209.697 781.126 210.626 781.333 220.967 781.333H232.181V739.643V697.952H221.653C211.579 697.952 211.061 698.092 209.65 701.19L208.177 704.428L204.481 701.795C195.107 695.116 177.752 693.379 166.058 697.95ZM282.268 699.687L274.098 703.948L272.494 700.95C271.016 698.186 270.118 697.952 260.992 697.952H251.093L251.421 755.119L251.749 812.285H265.636H279.524L279.878 796.057C280.2 781.304 280.43 779.905 282.403 780.676C301.325 788.058 320.02 784.498 332.511 771.134C341.43 761.593 343.724 755.335 343.825 740.274C343.901 728.893 343.546 726.852 340.237 719.682C332.988 703.972 318.952 695.425 300.398 695.425C291.542 695.425 289.532 695.898 282.268 699.687ZM472.681 697.123C464.016 699.985 460.007 702.645 453.305 709.984C433.579 731.582 440.45 767.619 466.595 779.683C484.682 788.027 505.547 785.126 519.411 772.337C524.224 767.897 531.386 757.058 531.386 754.213C531.386 753.843 524.853 753.539 516.867 753.539C507.89 753.539 502.349 754.028 502.349 754.822C502.349 757.489 494.139 761.111 488.083 761.114C480.638 761.121 475.23 758.471 472.703 753.581C468.639 745.717 467.715 745.959 501.694 745.959H532.6L533.391 742.806C534.562 738.138 531.997 725.604 528.428 718.557C524.586 710.97 515.628 702.509 507.677 698.959C500.208 695.624 480.37 694.583 472.681 697.123ZM1053.71 698.426C1041.05 703.733 1034.06 710.483 1028.6 722.657C1024.28 732.295 1024.6 747.77 1029.35 758.257C1037.82 776.976 1058.47 787.267 1080.58 783.791C1102.53 780.341 1117.53 764.841 1119.29 743.772C1120.9 724.558 1111.22 707.584 1094.18 699.742C1087.39 696.615 1084.41 696.036 1073.62 695.73C1062.62 695.418 1060.05 695.765 1053.71 698.426ZM1544.52 697.123C1530.07 701.894 1520.41 711.616 1515.99 725.819C1512.96 735.552 1512.94 743.665 1515.92 753.236C1522.07 773.02 1537.9 784.197 1559.67 784.129C1572.6 784.088 1581.9 780.708 1590.6 772.874C1595.84 768.164 1603.22 757.246 1603.22 754.213C1603.22 753.843 1596.69 753.539 1588.7 753.539C1580.72 753.539 1574.18 754.061 1574.18 754.699C1574.18 757.281 1565.57 761.119 1559.77 761.119C1552.46 761.119 1547.05 758.44 1544.54 753.581C1540.47 745.717 1539.56 745.959 1573.47 745.959C1608.73 745.959 1606.73 746.702 1605.11 734.2C1603.21 719.587 1593.45 705.78 1580.68 699.635C1574.76 696.789 1571.52 696.146 1561.56 695.832C1554.02 695.595 1547.69 696.075 1544.52 697.123ZM1653.26 697.881C1649.89 699.234 1646.1 701.272 1644.84 702.412C1642.7 704.348 1642.42 704.27 1640.42 701.217C1638.42 698.162 1637.64 697.952 1628.31 697.952H1618.34L1618.67 755.119L1619 812.285L1633.2 812.643L1647.41 813V796.535C1647.41 787.479 1647.91 780.07 1648.52 780.07C1649.12 780.07 1651.82 781.004 1654.51 782.147C1660.94 784.877 1675.25 784.888 1683.39 782.168C1693.69 778.727 1701.68 771.772 1706.74 761.824C1710.97 753.527 1711.16 752.567 1711.16 739.764C1711.16 727.989 1710.77 725.541 1707.89 719.429C1703.77 710.677 1696.73 703.656 1687.81 699.405C1678.43 694.938 1662.38 694.23 1653.26 697.881ZM1935.51 697.758C1927.71 700.523 1921.11 705.518 1915.38 712.999C1903.04 729.076 1905.29 757.422 1920.05 772.087C1932.93 784.88 1954.49 788.04 1970.87 779.534C1976.76 776.48 1976.92 776.465 1978.21 778.872C1979.36 781.03 1980.92 781.333 1990.84 781.333H2002.16V739.643V697.952H1990.8C1984.55 697.952 1979.43 698.378 1979.42 698.9C1979.41 699.421 1978.9 700.63 1978.29 701.588C1977.4 703.007 1975.82 702.657 1969.79 699.693C1960.16 694.959 1945.69 694.143 1935.51 697.758ZM2145.92 697.344C2127.28 703.271 2115.53 719.631 2115.53 739.643C2115.53 766.096 2134.41 784.226 2161.86 784.131C2174.63 784.088 2184.11 780.695 2192.47 773.173C2198.79 767.487 2204.84 756.988 2205.61 750.381L2206.05 746.591L2192.53 746.233L2179.01 745.875L2177 749.763C2174.17 755.251 2168.11 758.583 2160.96 758.588C2142.68 758.603 2137.3 731.052 2153.91 722.458C2161.17 718.701 2172.33 721.598 2176.09 728.212L2178.27 732.046L2191.85 732.055C2205.24 732.062 2205.42 732.023 2205.42 729.106C2205.42 724.37 2198.13 711.101 2193.11 706.687C2184.73 699.33 2175.91 696.123 2163.12 695.785C2155.83 695.593 2149.67 696.151 2145.92 697.344ZM358.428 739.643V781.333H372.911H387.394L387.745 764.023L388.096 746.712L398.196 764L408.295 781.289L425.097 781.311C438.217 781.328 441.688 780.987 440.934 779.754C440.401 778.886 434.119 769.216 426.972 758.267C419.824 747.317 413.976 738.116 413.976 737.82C413.976 737.523 419.673 728.573 426.634 717.932L439.291 698.584L424.498 698.226C416.361 698.029 409.083 698.106 408.323 698.398C407.564 698.69 402.703 705.955 397.519 714.542L388.096 730.157L387.742 714.055L387.389 697.952H372.908H358.428V739.643ZM538.961 709.91V721.867L551.901 722.227L564.841 722.587L565.18 751.96L565.519 781.333H579.36H593.2L593.54 751.96L593.878 722.587L606.818 722.227L619.758 721.867V709.91V697.952H579.36H538.961V709.91ZM632.383 739.643V781.333H640.997H649.611L665.931 762.931L682.251 744.53L682.6 762.931L682.949 781.333H696.803H710.656V739.643V697.952H702.485H694.315L677.552 716.297L660.789 734.642L660.439 716.297L660.091 697.952H646.236H632.383V739.643ZM729.593 739.643V781.333H744.112H758.63V766.805V752.276H770.623H782.617V766.805V781.333H796.504H810.391V739.643V697.952H796.546H782.7L782.343 712.165L781.986 726.377L770.308 726.741L758.63 727.104V712.529V697.952H744.112H729.593V739.643ZM829.328 739.643V781.333H843.192H857.056L857.395 751.96L857.734 722.587L873.199 722.232L888.664 721.877V709.915V697.952H858.996H829.328V739.643ZM930.325 739.643V781.333H944.844H959.362V751.596V721.861L971.04 722.224L982.718 722.587L983.056 751.96L983.396 781.333H997.259H1011.12V739.643V697.952H970.724H930.325V739.643ZM1399.96 698.716C1399.96 699.923 1388.61 773.985 1387.82 777.903L1387.12 781.42L1400.8 781.061L1414.48 780.701L1417.19 760.724C1418.68 749.735 1420.19 740.462 1420.53 740.115C1420.88 739.769 1426.16 749.186 1432.26 761.041C1447.16 789.967 1446.19 789.973 1461.18 760.855C1467.34 748.898 1472.63 739.857 1472.93 740.766C1473.23 741.674 1474.71 751.032 1476.2 761.559L1478.93 780.701L1492.53 781.06L1506.14 781.42L1505.42 777.27C1504.47 771.767 1496.46 721.587 1494.43 708.375L1492.83 697.952H1480.48H1468.13L1457.73 718.797C1452.02 730.262 1447.04 739.643 1446.67 739.643C1446.31 739.643 1441.33 730.262 1435.62 718.797L1425.22 697.952H1412.59C1405.65 697.952 1399.96 698.296 1399.96 698.716ZM1725.68 739.643V781.333H1734.44H1743.19L1760 762.752L1776.81 744.169L1777.16 762.752L1777.51 781.333H1791.36H1805.22V739.643V697.952H1796.66H1788.11L1771.1 716.542L1754.09 735.132L1753.74 716.542L1753.39 697.952H1739.53H1725.68V739.643ZM1824.15 739.643V781.333H1838.04H1851.93V764.278C1851.93 754.897 1852.35 747.247 1852.87 747.277C1853.39 747.307 1858.28 754.982 1863.73 764.332L1873.63 781.333H1890.52H1907.4L1893.55 760.315C1885.93 748.755 1879.7 738.713 1879.7 737.999C1879.7 737.286 1885.37 727.983 1892.3 717.327L1904.9 697.952L1888.83 697.984L1872.76 698.015L1863.29 713.744C1858.08 722.394 1853.39 729.486 1852.87 729.504C1852.35 729.522 1851.93 722.429 1851.93 713.744V697.952H1838.04H1824.15V739.643ZM2021.1 739.643V781.333H2034.98H2048.87V766.805V752.276H2060.86H2072.86V766.805V781.333H2086.75H2100.63V739.643V697.952H2086.75H2072.86V712.481V727.009H2060.86H2048.87V712.481V697.952H2034.98H2021.1V739.643ZM2219.3 739.643V781.333H2233.79H2248.27L2248.62 763.962L2248.97 746.591L2259.16 763.646L2269.36 780.701L2285.99 781.054C2295.14 781.247 2302.63 781.093 2302.63 780.71C2302.63 780.327 2296.36 770.627 2288.69 759.154C2280.35 746.665 2275.13 737.676 2275.68 736.756C2276.18 735.912 2281.88 727.103 2288.35 717.179C2294.81 707.257 2300.1 698.871 2300.1 698.545C2300.1 698.219 2293.03 697.952 2284.38 697.952H2268.66L2259.58 713.154C2254.58 721.514 2250.01 728.654 2249.42 729.02C2248.82 729.385 2248.34 722.544 2248.34 713.818V697.952H2233.82H2219.3V739.643ZM2311.46 739.643V781.333H2320.22H2328.98L2345.79 762.752L2362.59 744.169L2362.94 762.752L2363.29 781.333H2377.15H2391V739.643V697.952H2382.45H2373.9L2356.88 716.542L2339.87 735.132L2339.52 716.542L2339.17 697.952H2325.32H2311.46V739.643ZM1330.86 724.167L1336.54 740.274L1325.17 740.639C1318.91 740.84 1313.51 740.718 1313.16 740.366C1312.35 739.557 1323.28 708.059 1324.37 708.059C1324.81 708.059 1327.73 715.307 1330.86 724.167ZM498.084 720.278C500.781 722.045 504.874 727.969 504.874 730.104C504.874 730.487 497.204 730.799 487.831 730.799C478.457 730.799 470.787 730.487 470.787 730.104C470.787 729.723 471.611 727.818 472.617 725.871C474.526 722.177 478.616 718.934 482.834 717.77C486.686 716.706 494.63 718.013 498.084 720.278ZM1569.92 720.278C1572.62 722.045 1576.71 727.969 1576.71 730.104C1576.71 730.487 1569.04 730.799 1559.67 730.799C1550.29 730.799 1542.62 730.315 1542.62 729.723C1542.62 726.807 1548.87 719.888 1552.77 718.497C1557.97 716.636 1565.57 717.425 1569.92 720.278ZM196.59 723.249C201.032 725.961 205.595 734.246 205.642 739.691C205.687 744.877 200.395 753.879 195.724 756.564C190.232 759.72 181.939 759.713 176.523 756.547C164.606 749.583 164.157 730.24 175.748 723.169C181.206 719.836 191.059 719.875 196.59 723.249ZM307.877 724.001C313.107 728.404 315.504 733.341 315.504 739.704C315.504 751.188 307.698 759.079 296.336 759.079C279.014 759.079 271.054 736.811 284.138 724.959C288.045 721.419 289.668 720.911 297.417 720.792C302.708 720.711 304.693 721.32 307.877 724.001ZM1080.31 722.467C1086.82 725.858 1089.78 730.293 1090.38 737.563C1091.5 751.075 1083.75 759.38 1071 758.322C1063.28 757.681 1058.71 754.454 1055.78 747.579C1048.94 731.522 1065.38 714.694 1080.31 722.467ZM1673.86 722.557C1682.39 726.97 1685.7 741.74 1680.19 750.783C1674.46 760.186 1660.32 762.094 1651.8 754.611C1641.94 745.944 1643.21 729.81 1654.3 723.046C1658.98 720.19 1668.81 719.944 1673.86 722.557ZM1965.68 723.56C1977.23 731.282 1977.04 747.674 1965.29 756.448C1961.16 759.539 1951.23 759.793 1945.79 756.947C1933.33 750.429 1933.26 728.895 1945.67 722.771C1951.75 719.77 1960.53 720.118 1965.68 723.56ZM1167.67 739.035V752.324L1195.76 751.984L1223.85 751.644L1224.21 738.695L1224.57 725.746H1196.12H1167.67V739.035Z" stroke="white" stroke-width="6" mask="url(#path-1-inside-1)"/>
</svg>
