<svg width="23" height="20" viewBox="0 0 23 20" fill="none" xmlns="http://www.w3.org/2000/svg">
<path d="M21.3112 0.191955C21.0295 0.211632 20.7529 0.275082 20.4924 0.379829H20.4889C20.2388 0.47503 19.0496 0.955245 17.2418 1.68315L10.7635 4.30243C6.11489 6.18117 1.54529 8.03127 1.54529 8.03127L1.5997 8.01105C1.5997 8.01105 1.28465 8.11046 0.955553 8.32698C0.75224 8.45118 0.577289 8.61368 0.441287 8.80467C0.279811 9.03214 0.149928 9.38008 0.198195 9.73982C0.277178 10.3481 0.687888 10.7129 0.982758 10.9142C1.28114 11.1181 1.56548 11.2133 1.56548 11.2133H1.5725L5.85775 12.5992C6.04995 13.1915 7.1636 16.7063 7.43127 17.5159C7.58923 17.9995 7.74281 18.302 7.935 18.5328C8.02803 18.6508 8.13685 18.7493 8.26761 18.8285C8.33559 18.8665 8.40807 18.8965 8.48349 18.9178L8.43961 18.9077C8.45278 18.9111 8.46331 18.9212 8.47296 18.9246C8.50807 18.9338 8.53176 18.9372 8.57652 18.944C9.25489 19.1411 9.79988 18.7367 9.79988 18.7367L9.83059 18.7131L12.3607 16.5016L16.6012 19.6247L16.6977 19.6643C17.5814 20.0367 18.4766 19.8294 18.9496 19.4638C19.4261 19.0956 19.6113 18.6247 19.6113 18.6247L19.642 18.5488L22.9189 2.43296C23.0119 2.03531 23.0356 1.66293 22.933 1.30151C22.8271 0.935721 22.5826 0.621123 22.2476 0.419426C21.9662 0.255239 21.64 0.175989 21.3112 0.191955ZM21.2225 1.91905C21.219 1.97212 21.2296 1.96623 21.205 2.06817V2.07743L17.9588 18.0257C17.9448 18.0484 17.9211 18.0981 17.8561 18.1478C17.7877 18.2 17.7333 18.2329 17.448 18.1242L12.2615 14.3069L9.12852 17.0484L9.78671 13.0129L18.2607 5.43052C18.61 5.1188 18.4933 5.05309 18.4933 5.05309C18.5178 4.6706 17.9658 4.94104 17.9658 4.94104L7.28032 11.2959L7.27681 11.279L2.15521 9.62356V9.62019L2.14205 9.61766C2.15103 9.6148 2.15982 9.61142 2.16838 9.60755L2.19646 9.59407L2.22367 9.58481C2.22367 9.58481 6.79677 7.73471 11.4454 5.85597C13.7727 4.91492 16.1176 3.96712 17.9211 3.23585C19.7245 2.50879 21.0576 1.97549 21.133 1.94685C21.205 1.91989 21.1708 1.91989 21.2225 1.91989V1.91905Z" fill="#E81C34"/>
</svg>
