<svg width="100" height="100" viewBox="0 0 100 100" fill="none" xmlns="http://www.w3.org/2000/svg">
<g clip-path="url(#clip0)">
<path d="M99.0445 1.01214C91.0075 -7.02439 46.4741 37.0117 41.42 42.066L41.1714 42.3147L39.6802 48.2799L40.0528 48.4873C42.4558 49.9785 44.6099 51.7184 46.4327 53.624C47.9196 55.111 49.2005 56.6395 50.3165 58.3321L50.2905 58.4362L53.4151 59.9985L57.6595 58.9682L57.9907 58.6369C60.0204 56.6065 107.247 9.21467 99.0445 1.01214Z" fill="#F23249"/>
<path d="M99.0439 1.01172L46.4321 53.6232C47.919 55.1102 49.1999 56.6387 50.3159 58.3313L50.2899 58.4354L53.4146 59.9977L57.6589 58.9674L57.9901 58.6361C60.0198 56.6061 107.246 9.21426 99.0439 1.01172Z" fill="#D02C2D"/>
<path d="M57.6598 58.9677L56.0025 60.6249C49.7057 66.7559 42.6809 73.2835 37.1299 78.0892L21.9678 62.927C26.8148 57.2517 33.5082 50.0612 39.5562 43.9302L41.2135 42.2729L43.2021 43.5157C45.9361 45.2556 48.4217 47.2438 50.6174 49.4397C52.9371 51.7595 54.9672 54.3696 56.4998 57.0624L57.6598 58.9677Z" fill="#E7E7E7"/>
<path d="M57.6595 58.9679L56.0022 60.6251C49.7054 66.7562 42.6806 73.2837 37.1296 78.0894L29.5483 70.5083L50.6167 49.4399C52.9364 51.7597 54.9665 54.3698 56.4991 57.0626L57.6595 58.9679Z" fill="#BABAC0"/>
<path d="M37.6266 75.6029L37.4607 74.7746C36.674 71.8334 35.0998 69.1822 33.0283 67.0279C30.8326 64.7494 28.0158 63.0924 24.8676 62.3467L24.2461 62.2223C23.0445 61.9326 21.7191 61.7666 20.4762 61.7666C18.0736 61.7666 15.7123 62.2225 13.4336 63.1752C7.09531 66.0336 2.99434 72.3721 2.91133 79.3312C2.91133 81.8719 2.76191 84.2445 2.51523 86.3627L2.25332 91.0131C2.08535 93.9949 1.1918 97.1166 0 99.8525L0.189063 99.8672L2.53828 99.8375C12.4393 100.542 26.2754 98.3877 33.318 91.9252C36.508 88.9012 38.041 84.7998 38.0406 79.3314C38.041 78.0885 37.9162 76.8873 37.6266 75.6029Z" fill="#68544F"/>
<path d="M33.3186 91.9251C26.276 98.3876 12.4398 100.542 2.53887 99.8374L0.189453 99.8671L33.0287 67.0278C35.1002 69.1821 36.6742 71.8335 37.4611 74.7747L37.627 75.603C37.9168 76.8874 38.0414 78.0888 38.0412 79.3313C38.0414 84.7997 36.5084 88.9011 33.3186 91.9251Z" fill="#3E322E"/>
</g>
<defs>
<clipPath id="clip0">
<rect width="100" height="100" fill="white"/>
</clipPath>
</defs>
</svg>
