<svg width="100" height="100" viewBox="0 0 100 100" fill="none" xmlns="http://www.w3.org/2000/svg">
<path d="M2.58145 97.4204C0.916601 95.7558 0 93.5425 0 91.1884C0 88.8343 0.916601 86.621 2.58145 84.9564L67.0074 20.5304C68.1514 19.3863 70.0064 19.3865 71.1506 20.5304L79.4717 28.8513C80.0211 29.4007 80.3299 30.1458 80.3299 30.9228C80.3299 31.6997 80.0213 32.4449 79.4717 32.9943L15.0455 97.4204C13.3273 99.1386 11.0703 99.9976 8.81348 99.9976C6.55664 99.9976 4.29961 99.1386 2.58145 97.4204Z" fill="#464B52"/>
<path d="M79.4718 28.851C80.0212 29.4004 80.33 30.1455 80.33 30.9225C80.33 31.6994 80.0214 32.4445 79.4718 32.9939L15.0456 97.4201C13.3274 99.1383 11.0704 99.9973 8.81357 99.9973C6.55674 99.9973 4.29971 99.1383 2.58154 97.4201L75.3112 24.6904L79.4718 28.851Z" fill="#292B2F"/>
<path d="M61.7676 76.4668C82.8828 76.4668 100 59.3496 100 38.2344C100 17.1192 82.8828 0.00195312 61.7676 0.00195312C40.6524 0.00195312 23.5352 17.1192 23.5352 38.2344C23.5352 59.3496 40.6524 76.4668 61.7676 76.4668Z" fill="#F23249"/>
<path d="M88.789 11.2129C95.712 18.1359 99.9997 27.6939 99.9997 38.2348C99.9997 59.3162 82.8487 76.4672 61.7673 76.4672C51.2267 76.4672 41.6685 72.1795 34.7456 65.2564L88.789 11.2129Z" fill="#D02C2D"/>
<path d="M61.7676 64.6992C76.3837 64.6992 88.2324 52.8505 88.2324 38.2344C88.2324 23.6182 76.3837 11.7695 61.7676 11.7695C47.1514 11.7695 35.3027 23.6182 35.3027 38.2344C35.3027 52.8505 47.1514 64.6992 61.7676 64.6992Z" fill="#E1FAFF"/>
<path d="M61.7667 64.6993C54.4704 64.6993 47.8542 61.7313 43.062 56.9391L80.4714 19.5298C85.2636 24.322 88.2315 30.9382 88.2315 38.2345C88.2315 52.8272 76.3595 64.6993 61.7667 64.6993Z" fill="#C7F5FF"/>
</svg>
