<svg width="100" height="100" viewBox="0 0 100 100" fill="none" xmlns="http://www.w3.org/2000/svg">
<path d="M82.4219 2.92969V61.9141H6.05469V2.92969H82.4219Z" fill="#E6F7FF"/>
<path d="M44.1406 2.92969H6.05469V61.9141H44.1406V2.92969Z" fill="#CCEEFF"/>
<path d="M2.92969 64.8438H91.2109C92.8303 64.8438 94.1406 63.5334 94.1406 61.9141C94.1406 60.2947 92.8303 58.9844 91.2109 58.9844H2.92969C1.31035 58.9844 0 60.2947 0 61.9141C0 63.5334 1.31035 64.8438 2.92969 64.8438Z" fill="#47568C"/>
<path d="M2.92969 58.9844H44.1406V64.8438H2.92969C1.31035 64.8438 0 63.5334 0 61.9141C0 60.2947 1.31035 58.9844 2.92969 58.9844Z" fill="#29376D"/>
<path d="M44.1406 53.125H52.9297C54.5477 53.125 55.8594 51.8133 55.8594 50.1953V38.4766C55.8594 36.8586 54.5477 35.5469 52.9297 35.5469H41.2109C39.593 35.5469 38.2812 36.8586 38.2812 38.4766V47.2656C38.2812 50.5018 40.9045 53.125 44.1406 53.125Z" fill="#FF99BB"/>
<path d="M82.4219 35.5469C88.882 35.5469 94.1406 30.2912 94.1406 23.8281C94.1406 17.365 88.882 12.1094 82.4219 12.1094C75.9617 12.1094 70.7031 17.365 70.7031 23.8281C70.7031 30.2912 75.9617 35.5469 82.4219 35.5469Z" fill="#F23249"/>
<path d="M76.5625 100H88.2812C89.7861 100 91.0449 98.8584 91.1937 97.3621L93.8602 70.7031H97.0703C98.6896 70.7031 100 69.3928 100 67.7734V53.125C100 43.4318 92.115 35.5469 82.4219 35.5469C72.7287 35.5469 64.8438 43.4318 64.8438 53.125V67.7734C64.8438 69.3928 66.1541 70.7031 67.7734 70.7031H70.9836L73.65 97.3621C73.7988 98.8584 75.0576 100 76.5625 100Z" fill="#F23249"/>
<path d="M2.92969 5.85938H85.3516C86.9709 5.85938 88.2812 4.54902 88.2812 2.92969C88.2812 1.31035 86.9709 0 85.3516 0H2.92969C1.31035 0 0 1.31035 0 2.92969C0 4.54902 1.31035 5.85938 2.92969 5.85938Z" fill="#47568C"/>
<path d="M76.5625 100C75.0576 100 73.7988 98.8584 73.65 97.3621L70.9836 70.7031H67.7734C66.1541 70.7031 64.8438 69.3928 64.8438 67.7734V53.125C64.8438 43.4318 72.7287 35.5469 82.4219 35.5469V100H76.5625Z" fill="#D02C2D"/>
<path d="M70.7031 23.8281C70.7031 17.365 75.9617 12.1094 82.4219 12.1094V35.5469C75.9617 35.5469 70.7031 30.2912 70.7031 23.8281Z" fill="#D02C2D"/>
<path d="M2.92969 0H44.1406V5.85938H2.92969C1.31035 5.85938 0 4.54902 0 2.92969C0 1.31035 1.31035 0 2.92969 0Z" fill="#29376D"/>
<path d="M32.4219 53.125H44.1406V26.7578C44.1406 25.1398 42.8289 23.8281 41.2109 23.8281H29.4922C27.8742 23.8281 26.5625 25.1398 26.5625 26.7578V47.2656C26.5625 50.5018 29.1857 53.125 32.4219 53.125Z" fill="#80BFFF"/>
<path d="M23.6328 53.125H32.4219V15.0391C32.4219 13.4211 31.1102 12.1094 29.4922 12.1094H23.6328C22.0148 12.1094 20.7031 13.4211 20.7031 15.0391V50.1953C20.7031 51.8133 22.0148 53.125 23.6328 53.125Z" fill="#FABE2C"/>
</svg>
