<svg width="100" height="100" viewBox="0 0 100 100" fill="none" xmlns="http://www.w3.org/2000/svg">
<path d="M98.0227 99.8592C86.3887 100.697 74.9119 97.7736 65.2002 91.698L70.4652 70.4654L88.1223 79.4097L99.7355 99.7357L98.0227 99.8592Z" fill="#EECCFF"/>
<path d="M99.7357 99.7354L70.4653 70.4652L91.698 65.2002C97.7734 74.9117 100.697 86.3887 99.8589 98.0227L99.7357 99.7354Z" fill="#EE99FF"/>
<path d="M69.8464 34.741L69.1743 40.7051L48.2567 33.6838L42.2329 13.7637L55.9966 7.62939e-06L58.6022 2.60567C67.045 11.0484 71.1835 22.8764 69.8464 34.741Z" fill="#2D0390"/>
<path d="M34.7412 69.8472C22.8764 71.1843 11.0484 67.0456 2.60566 58.603L0 55.9972L13.7637 42.2335L33.9367 48.3913L40.7051 69.1749L34.7412 69.8472Z" fill="#5F05A7"/>
<path d="M0.851074 23.0371L11.3847 33.5707L15.5273 29.4282L4.99365 18.8945L0.851074 23.0371Z" fill="#F2D05C"/>
<path d="M18.875 5.0083L29.4086 15.5419L33.5512 11.3993L23.0176 0.865713L18.875 5.0083Z" fill="#F79F5E"/>
<path d="M65.2009 91.6982C61.7413 89.534 58.5038 86.9734 55.5659 84.0355L13.7642 42.2338L27.9991 27.9988L72.6413 54.1348L78.4497 78.4494L65.2009 91.6982Z" fill="#F23249"/>
<path d="M27.9995 27.9988L42.2345 13.7639L84.036 55.5654C86.9741 58.5033 89.5347 61.741 91.6989 65.2004L78.4501 78.4492L27.9995 27.9988Z" fill="#D02C2D"/>
<path d="M4.6665 8.81093L6.73818 6.73945L15.6438 13.5734L22.478 22.4791L20.4063 24.5508L4.6665 8.81093Z" fill="#F2D05C"/>
<path d="M6.72852 6.74805L22.4659 22.4854L24.5372 20.4141L8.7998 4.67676L6.72852 6.74805Z" fill="#F79F5E"/>
<path d="M54.13 68.0355C50.2899 64.1955 50.2901 57.9699 54.13 54.1298L64.5592 57.6062L68.0356 68.0355C64.1956 71.8755 57.9698 71.8755 54.13 68.0355Z" fill="#063889"/>
<path d="M68.036 68.0356L54.1304 54.13C57.9702 50.2901 64.196 50.2899 68.036 54.13C71.8759 57.97 71.8759 64.1958 68.036 68.0356Z" fill="#04275A"/>
</svg>
